<svg xmlns="http://www.w3.org/2000/svg" width="157.22" height="49.35" viewBox="0 0 157.22 49.35">
  <path id="パス_1" data-name="パス 1" d="M52.08-24.22H54.6q4.13-6.79,6.23-9.87,4.9-7.14,7.28-8.47l.42.35L58.03-24.43q5.39-.63,6.44-3.01a4.111,4.111,0,0,1,2.17-2.17l1.12.49A3.38,3.38,0,0,1,68.18-28q0,2.73-4.27,3.92a23.655,23.655,0,0,1-6.51.84L52.01-12.88a10.689,10.689,0,0,1,3.325,2.59A5.382,5.382,0,0,1,56.63-6.72a6,6,0,0,1-3.36,5.39A12.829,12.829,0,0,1,46.76.28,8.18,8.18,0,0,1,44.31,0a1.806,1.806,0,0,1-1.47-1.75q0-1.54,3.22-7.56,1.89-3.36,2.24-3.99l-9.1-3.64A49.424,49.424,0,0,1,27.65-3.92,26.686,26.686,0,0,1,11.34,1.61,19.54,19.54,0,0,1,4.62.56Q.77-.84,0-3.92L.49-5.18l1.26-.49q1.05.35,3.71,3.5Q7.63.35,12.18.35A18.854,18.854,0,0,0,22.19-2.52a32.346,32.346,0,0,0,7.7-7.07,85.506,85.506,0,0,0,6.02-8.75,13.521,13.521,0,0,1-2.31-1.435,8.47,8.47,0,0,1-1.33-2.205l1.19-2.1a11.211,11.211,0,0,1,2.485-.455q1.365-.105,2.275-.1h1.61q4.69-7.28,7.07-10.29a42.151,42.151,0,0,1,9.17-8.96,20.238,20.238,0,0,1,11.62-3.85,18.176,18.176,0,0,1,3.955.385,13.641,13.641,0,0,1,3.6,1.435l1.12,1.82-.49,1.19-1.12.49a19.8,19.8,0,0,1-4.55-2.24,10.319,10.319,0,0,0-5.18-1.54q-6.51,0-12.88,8.05-2.73,3.43-8.54,13.72Zm-3.22,9.87,5.11-8.82H42.84l-3.01,5.25ZM38.92-23.1h-.7a5.367,5.367,0,0,0-2.45.42A1.3,1.3,0,0,0,35-21.49a1.8,1.8,0,0,0,.315.98,3.754,3.754,0,0,0,1.295,1.05ZM47.67-2.73a1.012,1.012,0,0,0,.6.945,2.725,2.725,0,0,0,1.295.315,6.183,6.183,0,0,0,4.1-1.575A4.835,4.835,0,0,0,55.51-6.86,4.287,4.287,0,0,0,54.39-9.8a8.176,8.176,0,0,0-2.87-2.03Q50.4-9.45,49.35-7.07A22.824,22.824,0,0,0,47.67-2.73ZM75.81-16.31a26.172,26.172,0,0,1,3.01-1.96,7.573,7.573,0,0,1,3.43-.98,3.393,3.393,0,0,1,2.66,1.19,4.188,4.188,0,0,1,1.05,2.87q0,6.16-6.79,11.06A21.7,21.7,0,0,1,66.36.42,19.531,19.531,0,0,1,62.02,0q-3.15-.7-3.15-2.38l.35-.91.98-.35q1.12.28,2.17.56,3.22,0,7.98-10.01,6.93-14.63,9.73-18.62,7.07-10.08,15.89-10.08a9.349,9.349,0,0,1,3.22.49,3.154,3.154,0,0,1,1.89,1.96l-.42,1.05-.98.42a34.039,34.039,0,0,1-3.15-1.33,8.085,8.085,0,0,0-3.36-.84q-4.69,0-10.01,8.33-4.69,8.4-9.31,16.73Q68.18-4.97,63.77-2.45a13.08,13.08,0,0,0,5.67,1.26q4.55,0,8.715-4.165T82.32-14.07a2.337,2.337,0,0,0-.14-.8q-.14-.385-.49-1.225l-1.75-.77a15.437,15.437,0,0,0-3.57,1.26ZM92.47.56A4.285,4.285,0,0,1,89-.805,5.617,5.617,0,0,1,87.85-4.55q0-5.11,5.565-9.975T104.23-19.39a4.485,4.485,0,0,1,1.89.385,1.279,1.279,0,0,1,.84,1.225q0,1.19-1.47,1.19a8.12,8.12,0,0,1-2.1-.42,8.177,8.177,0,0,0-2.17-.42q-3.71,0-6.9,4.235A13.706,13.706,0,0,0,91.14-5.04a4.7,4.7,0,0,0,.63,2.625,2.493,2.493,0,0,0,2.24.945q3.08,0,5.74-3.15a9.8,9.8,0,0,0,2.66-6.3,6.263,6.263,0,0,0-.35-1.61,6.266,6.266,0,0,1-.35-1.68,1.206,1.206,0,0,1,.385-.875,1.206,1.206,0,0,1,.875-.385,1.382,1.382,0,0,1,1.365,1.015,5.969,5.969,0,0,1,.385,2.135q0,4.06-4.13,8.47T92.47.56ZM118.51.28q-1.47,0-1.47-1.33a6.01,6.01,0,0,1,.77-2.52q.14-.35.77-1.47a31.116,31.116,0,0,1-3.85,3.36A8.483,8.483,0,0,1,110.04.21a2.166,2.166,0,0,1-2.45-2.45q0-1.47,2.1-5.04,2.66-4.55,5.39-9.17l-.49-.49a2.7,2.7,0,0,0-1.4.42q-.7.42-2.66,1.89l-.35-.84a24.066,24.066,0,0,1,3.08-2.31,7.444,7.444,0,0,1,3.5-1.4,1.879,1.879,0,0,1,1.12.35,1.135,1.135,0,0,1,.49.98q0,1.33-3.92,7.42t-3.92,7.42l.35.77.84.35q2.94,0,7.91-5.95,4.62-5.53,5.53-8.61l-.42-.56a5.051,5.051,0,0,0-1.96.98q-1.19.77-1.89,1.33l-.49-.77a18.6,18.6,0,0,1,3.01-2.38,7.372,7.372,0,0,1,3.57-1.33q1.54,0,1.54,1.33,0,1.19-4.06,7.7T120.4-2.87q0,.7.63.7a3.363,3.363,0,0,0,1.61-.7q.56-.42,2.8-2.24l.49.84A24.854,24.854,0,0,1,122.5-1.4,7.767,7.767,0,0,1,118.51.28Zm17.15-16.8a1.657,1.657,0,0,1,.805-1.575,4.328,4.328,0,0,1,2.135-.455q.84,0,1.61.07t1.47.14a44.206,44.206,0,0,1,5.53-8.68q4.27-5.11,8.26-5.11,1.75,0,1.75.91l-.28.63a2.006,2.006,0,0,1-.91.21,10.031,10.031,0,0,0-1.68-.21q-3.78,0-6.44,4.97-1.89,3.85-3.78,7.63l1.89.21q2.59,0,3.01-1.75t1.12-1.75q1.26,0,1.26,1.33a2.428,2.428,0,0,1-1.61,2.38,9.616,9.616,0,0,1-3.85.7h-1.19a5.9,5.9,0,0,0-.98-.14q-.91,2.31-1.26,3.22a22.277,22.277,0,0,1-1.47,3.15A6.434,6.434,0,0,1,142.17-7a6.391,6.391,0,0,1-3.15,5.67A11.935,11.935,0,0,1,132.44.42,11.041,11.041,0,0,1,129.5.07q-1.96-.56-1.96-1.82,0-1.05.84-1.05a3,3,0,0,1,.77.14,2.966,2.966,0,0,0,.7.14q1.61,0,5.145-4.165t3.535-5.635a12.263,12.263,0,0,1-1.4-1.47A5.047,5.047,0,0,1,135.66-16.52Zm5.46-.91L140-17.5a2.677,2.677,0,0,0-1.575.42,1.515,1.515,0,0,0-.6,1.33,2.869,2.869,0,0,0,.35,1.26,3.526,3.526,0,0,0,.84,1.12q.35-.63.875-1.54A26.012,26.012,0,0,0,141.12-17.43ZM130.97-1.89a9.14,9.14,0,0,0,3.36.63,7.408,7.408,0,0,0,4.69-1.47,5.245,5.245,0,0,0,2.17-4.34,5.27,5.27,0,0,0-.7-2.59,19.242,19.242,0,0,1-3.92,4.9A11.938,11.938,0,0,1,130.97-1.89Z" transform="translate(0 47.74)" fill="#ebc8cc"/>
</svg>
