<svg xmlns="http://www.w3.org/2000/svg" width="309.33" height="69.09" viewBox="0 0 309.33 69.09">
  <path id="パス_3" data-name="パス 3" d="M16.31-34.72a9.214,9.214,0,0,1,3.5-7.07,15.76,15.76,0,0,1,7.42-3.57l.21.84a14.043,14.043,0,0,0-5.32,3.99,9.647,9.647,0,0,0-2.31,6.16,7.1,7.1,0,0,0,2.03,5.25,10.868,10.868,0,0,0,5.11,2.73A68.585,68.585,0,0,1,41.3-39.41q9.73-6.58,17.85-6.58a10.743,10.743,0,0,1,5.46,1.26,5.118,5.118,0,0,1,2.8,4.69,8.025,8.025,0,0,1-3.29,6.44,11.217,11.217,0,0,1-7.21,2.66,9.407,9.407,0,0,1-2.695-.385A6.757,6.757,0,0,1,51.94-32.48a19.163,19.163,0,0,1-10.08,6.3,43.636,43.636,0,0,1-12.11,1.47,36.708,36.708,0,0,0-3.71,6.93,20.91,20.91,0,0,0-1.68,7.7A7.145,7.145,0,0,0,26.95-4.2a9.894,9.894,0,0,0,6.44,2.1,16.789,16.789,0,0,0,9.8-3.43q5.39-3.85,5.39-8.61a3.845,3.845,0,0,0-1.05-2.73,3.489,3.489,0,0,0-2.66-1.12,5.747,5.747,0,0,0-3.64,1.33,12.842,12.842,0,0,0-2.59,2.94l-.84-.42a11.458,11.458,0,0,1,3.43-4.69,8.548,8.548,0,0,1,5.46-2.1,4.27,4.27,0,0,1,3.255,1.3,4.738,4.738,0,0,1,1.225,3.4q0,5.95-7.14,11.48Q37.24.49,30.94.49A12.042,12.042,0,0,1,23.03-2.1a9.253,9.253,0,0,1-3.36-7.49,20.173,20.173,0,0,1,1.89-8.33,40.376,40.376,0,0,1,4.55-7.42,13.8,13.8,0,0,1-6.58-3.01A8.152,8.152,0,0,1,16.31-34.72ZM32.9-25.76a28.176,28.176,0,0,0,10.15-1.82,19.656,19.656,0,0,0,8.05-5.67,4.924,4.924,0,0,1-1.12-3.01,3.019,3.019,0,0,1,.49-1.715,1.583,1.583,0,0,1,1.4-.735,1.392,1.392,0,0,1,1.26.665,3.023,3.023,0,0,1,.42,1.645,4.843,4.843,0,0,1-.98,2.94,4.652,4.652,0,0,0,1.82,1.015,7.511,7.511,0,0,0,2.17.315,8.574,8.574,0,0,0,5.565-2.03A6.261,6.261,0,0,0,64.61-39.2a4.43,4.43,0,0,0-2.1-3.955,8.664,8.664,0,0,0-4.83-1.365q-6.93,0-15.33,6.3A46.573,46.573,0,0,0,30.59-25.83ZM67.34-2.73q0,.77.63.77a4.865,4.865,0,0,0,2.17-1.12A18.278,18.278,0,0,0,72.1-4.76l.49.84a21.947,21.947,0,0,1-3.36,2.73A7.93,7.93,0,0,1,65.31.42q-1.68,0-1.68-1.4a4.016,4.016,0,0,1,.28-1.435q.28-.735.77-1.785a24.379,24.379,0,0,1-3.5,2.94A7.88,7.88,0,0,1,56.91.35a3.269,3.269,0,0,1-2.52-.98,3.755,3.755,0,0,1-.91-2.66q0-5.53,6.37-10.815T71.82-19.39a11.552,11.552,0,0,1,3.15.455q1.61.455,1.61,1.575l-.42.84-.91.35q-.14,0-3.08-.98a8.193,8.193,0,0,0-2.52-.49q-4.06,0-8.33,4.41T57.05-4.69a2.72,2.72,0,0,0,.525,1.68,1.768,1.768,0,0,0,1.505.7q3.01,0,7.07-4.9a51.8,51.8,0,0,0,5.18-7.63h2.73q-1.75,2.8-3.36,5.6Q67.34-3.57,67.34-2.73ZM85.12-14.77a2.9,2.9,0,0,1,1.295-2.765,7.012,7.012,0,0,1,3.465-.735q.91,0,1.61.035t1.19.035l.07-.21,2.17-4.13a80.679,80.679,0,0,1,4.9-8.19,36.352,36.352,0,0,1,7-7.63,14.24,14.24,0,0,1,8.75-3.36,6.051,6.051,0,0,1,2.9.49,1.609,1.609,0,0,1,.8,1.47.537.537,0,0,0-.07.21q-.21.35-.35.63l-1.05.35a7.756,7.756,0,0,1-2.275-.77,6.113,6.113,0,0,0-2.345-.7q-5.18,0-10.64,8.75-.7,1.12-6.79,13.3a2.371,2.371,0,0,0,.875.14H97.65a3.222,3.222,0,0,0,1.925-.63,2.16,2.16,0,0,0,.945-1.68l1.26-1.12,1.19,1.33-1.19,2.31a7.725,7.725,0,0,1-2.065.56,17.214,17.214,0,0,1-2.205.14H95.27q-.28.63-3.36,6.51-3.64,7-3.64,11.48,0,8.82-4.13,14.77a15.215,15.215,0,0,1-13.23,6.86,9.728,9.728,0,0,1-3.22-.49,3.149,3.149,0,0,1-1.96-1.89l.35-.84.91-.35,2.94,1.19q4.41-2.45,9.66-11.62,2.87-4.97,7-14.14-.63-3.08-.91-4.62A26.466,26.466,0,0,1,85.12-14.77Zm7.07-2.38-1.12-.07a3.92,3.92,0,0,0-3.185,1.3A5.221,5.221,0,0,0,86.8-12.46a15.416,15.416,0,0,0,.14,2.17q.14.98.56,3.01Q89.88-12.74,92.19-17.15ZM71.96,20.44l1.4.07q6.79,0,10.57-6.86A26.586,26.586,0,0,0,87.01.63a54.72,54.72,0,0,1-6.44,10.64A46.29,46.29,0,0,1,71.96,20.44ZM116.9-4.97a25.483,25.483,0,0,1-4.34,3.5A9.959,9.959,0,0,1,107.38.42a3.745,3.745,0,0,1-2.94-1.26,4.471,4.471,0,0,1-1.12-3.08q0-4.62,5.145-9.905t9.695-5.285a3.288,3.288,0,0,1,1.82.455,1.659,1.659,0,0,1,.7,1.505q0,2.66-5.39,5.67a35.991,35.991,0,0,1-8.05,3.36,8.192,8.192,0,0,0-.49,2.52,3.594,3.594,0,0,0,.735,2.275,2.393,2.393,0,0,0,1.995.945,7.9,7.9,0,0,0,3.85-1.26,30.694,30.694,0,0,0,3.36-2.38Zm.49-11.27q0-1.12-1.26-1.12-2.1,0-4.83,2.94a23.775,23.775,0,0,0-3.5,4.9,28.887,28.887,0,0,0,5.67-2.52Q117.39-14.28,117.39-16.24ZM160.72-3.92a28.486,28.486,0,0,1-3.5,2.66A8.427,8.427,0,0,1,153.3.42a1.423,1.423,0,0,1-1.61-1.61,3.854,3.854,0,0,1,.28-1.365q.28-.735.77-1.785a20.326,20.326,0,0,1-3.92,3.15A9.145,9.145,0,0,1,144.13.28a3.6,3.6,0,0,1-2.66-1.05,3.693,3.693,0,0,1-1.05-2.73q0-4.83,6.02-10.22t10.99-5.39a4.521,4.521,0,0,1,1.68.28,1.09,1.09,0,0,1,.7,1.12l-.35.84-.91.35q-1.68-.35-3.36-.77-3.36,0-7.245,4.445t-3.885,7.8a3.381,3.381,0,0,0,.245.875q.245.665.455,1.155.77.35,1.05.49t.63.35q4.69,0,11.27-10.15,5.81-9.38,11.69-18.83,7.14-10.15,13.37-10.15a5.339,5.339,0,0,1,2.38.455,2.583,2.583,0,0,1,1.26,1.785l-.42.98-.98.42a8.123,8.123,0,0,1-2.17-1.015,5.111,5.111,0,0,0-2.45-.875q-2.87,0-9.31,9.38a202.531,202.531,0,0,0-10.57,17.5q-4.83,8.82-5.11,9.94l.56.63a18.184,18.184,0,0,0,2.1-1.085,25.075,25.075,0,0,0,2.24-1.5Zm18.27-1.05a25.483,25.483,0,0,1-4.34,3.5A9.959,9.959,0,0,1,169.47.42a3.745,3.745,0,0,1-2.94-1.26,4.471,4.471,0,0,1-1.12-3.08q0-4.62,5.145-9.905t9.7-5.285a3.287,3.287,0,0,1,1.82.455,1.659,1.659,0,0,1,.7,1.505q0,2.66-5.39,5.67a35.991,35.991,0,0,1-8.05,3.36,8.192,8.192,0,0,0-.49,2.52,3.594,3.594,0,0,0,.735,2.275,2.393,2.393,0,0,0,1.995.945,7.9,7.9,0,0,0,3.85-1.26,30.694,30.694,0,0,0,3.36-2.38Zm.49-11.27q0-1.12-1.26-1.12-2.1,0-4.83,2.94a23.775,23.775,0,0,0-3.5,4.9,28.887,28.887,0,0,0,5.67-2.52Q179.48-14.28,179.48-16.24Zm38.92,14,2.31.07q11.2,0,21.28-7.49a48.387,48.387,0,0,0,14.56-17.57,33.362,33.362,0,0,0,2.87-8.61q.91-4.69,1.82-9.17l1.33-.77,1.47.84.315,1.26a4.786,4.786,0,0,1,.175,1.05,17.051,17.051,0,0,1-1.05,5.39,43.976,43.976,0,0,1-2.17,5.18A60.725,60.725,0,0,1,243.67-9.59Q231.28.07,217.21.07a23.164,23.164,0,0,1-6.9-.735A3.722,3.722,0,0,1,207.69-3.08l.42-.98.91-.35q3.15.77,6.37,1.47a9.569,9.569,0,0,0,5.25-1.47q2.87-1.82,5.81-6.93a13.018,13.018,0,0,1-8.435-3.955,12.227,12.227,0,0,1-3.185-8.715q0-10.01,9.1-16.52a31.442,31.442,0,0,1,18.69-5.88,25.243,25.243,0,0,1,4.83.35q2.94.63,3.85,2.45l-.28.84-.77.35q-5.46-1.05-10.85-2.1a22.646,22.646,0,0,0-15.05,5.565,17.535,17.535,0,0,0-6.58,13.965,13.87,13.87,0,0,0,2.485,8.12,9.718,9.718,0,0,0,6.895,4.2q2.03-5.32,4.06-10.71a56.532,56.532,0,0,1,6.3-12.46q4.34-6.02,9.24-6.02a3,3,0,0,1,.77.14q.49.14.7.21l.49.91-1.26,1.12-2.17-.21q-4.97,0-9.03,11.06-2.87,7.98-5.74,15.89a13.688,13.688,0,0,0,8.96-5.25,16.315,16.315,0,0,0,3.36-10.29l1.05-.14.14,1.96a14.923,14.923,0,0,1-4.34,10.5,13.511,13.511,0,0,1-10.15,4.62,21.805,21.805,0,0,1-4.865,5.46A18.17,18.17,0,0,1,218.4-2.24ZM258.23.56a4.285,4.285,0,0,1-3.465-1.365A5.617,5.617,0,0,1,253.61-4.55q0-5.11,5.565-9.975T269.99-19.39a4.485,4.485,0,0,1,1.89.385,1.279,1.279,0,0,1,.84,1.225q0,1.19-1.47,1.19a8.12,8.12,0,0,1-2.1-.42,8.177,8.177,0,0,0-2.17-.42q-3.71,0-6.895,4.235A13.706,13.706,0,0,0,256.9-5.04a4.7,4.7,0,0,0,.63,2.625,2.493,2.493,0,0,0,2.24.945q3.08,0,5.74-3.15a9.8,9.8,0,0,0,2.66-6.3,6.262,6.262,0,0,0-.35-1.61,6.266,6.266,0,0,1-.35-1.68,1.206,1.206,0,0,1,.385-.875,1.206,1.206,0,0,1,.875-.385,1.382,1.382,0,0,1,1.365,1.015,5.969,5.969,0,0,1,.385,2.135q0,4.06-4.13,8.47T258.23.56ZM274.82.28q-1.68,0-1.68-1.54,0-1.26,2.24-5.11,3.01-5.04,6.09-10.08a.7.7,0,0,0-.21-.245,2.044,2.044,0,0,1-.21-.175,4.887,4.887,0,0,0-2.275.98,18.607,18.607,0,0,0-2.275,1.68l-.42-.84q2.17-1.68,3.36-2.45a8.109,8.109,0,0,1,3.78-1.54q1.54,0,1.54,1.47,0,1.26-4.1,7.7t-4.1,7.21q0,.49.56.49a4.718,4.718,0,0,0,2.38-1.12q.7-.49,2.1-1.68l.42.84a32.053,32.053,0,0,1-3.36,2.73A7.418,7.418,0,0,1,274.82.28Zm14.7-31.29q1.33,0,1.33,1.4a2.65,2.65,0,0,1-.665,1.715,1.93,1.93,0,0,1-1.505.805q-1.33,0-1.33-1.4a2.786,2.786,0,0,1,.6-1.75A1.893,1.893,0,0,1,289.52-31.01Zm5.6,28.84A12.112,12.112,0,0,1,287.28.42a8.4,8.4,0,0,1-2.59-.28,2.729,2.729,0,0,1-1.75-1.82l.42-.91.84-.35,2.17.56q4.41-1.82,9.38-12.32,6.79-14.35,9.31-17.85,6.58-9.17,15.82-9.17a7.689,7.689,0,0,1,2.975.49A3.03,3.03,0,0,1,325.5-39.2l-.42.91-.91.35a25.886,25.886,0,0,1-3.71-1.4,6.651,6.651,0,0,0-2.59-.56q-5.88,0-10.92,8.33-4.2,8.47-8.4,16.87Q293.3-4.62,287.84-1.96a6.808,6.808,0,0,0,2.66.56,7.564,7.564,0,0,0,4.2-1.33Zm21.28-.56q0,.77.63.77a4.865,4.865,0,0,0,2.17-1.12,18.276,18.276,0,0,0,1.96-1.68l.49.84a21.948,21.948,0,0,1-3.36,2.73A7.93,7.93,0,0,1,314.37.42q-1.68,0-1.68-1.4a4.016,4.016,0,0,1,.28-1.435q.28-.735.77-1.785a24.379,24.379,0,0,1-3.5,2.94A7.88,7.88,0,0,1,305.97.35a3.269,3.269,0,0,1-2.52-.98,3.755,3.755,0,0,1-.91-2.66q0-5.53,6.37-10.815t11.97-5.285a11.552,11.552,0,0,1,3.15.455q1.61.455,1.61,1.575l-.42.84-.91.35q-.14,0-3.08-.98a8.192,8.192,0,0,0-2.52-.49q-4.06,0-8.33,4.41t-4.27,8.54a2.72,2.72,0,0,0,.525,1.68,1.768,1.768,0,0,0,1.5.7q3.01,0,7.07-4.9a51.794,51.794,0,0,0,5.18-7.63h2.73q-1.75,2.8-3.36,5.6Q316.4-3.57,316.4-2.73Z" transform="translate(-16.31 46.41)" fill="#ebc8cc"/>
</svg>
