<svg xmlns="http://www.w3.org/2000/svg" width="170.03" height="46.55" viewBox="0 0 170.03 46.55">
  <path id="パス_2" data-name="パス 2" d="M16.31-34.72a9.214,9.214,0,0,1,3.5-7.07,15.76,15.76,0,0,1,7.42-3.57l.21.84a14.043,14.043,0,0,0-5.32,3.99,9.647,9.647,0,0,0-2.31,6.16,7.1,7.1,0,0,0,2.03,5.25,10.868,10.868,0,0,0,5.11,2.73A68.585,68.585,0,0,1,41.3-39.41q9.73-6.58,17.85-6.58a10.743,10.743,0,0,1,5.46,1.26,5.118,5.118,0,0,1,2.8,4.69,8.025,8.025,0,0,1-3.29,6.44,11.217,11.217,0,0,1-7.21,2.66,9.407,9.407,0,0,1-2.695-.385A6.757,6.757,0,0,1,51.94-32.48a19.163,19.163,0,0,1-10.08,6.3,43.636,43.636,0,0,1-12.11,1.47,36.708,36.708,0,0,0-3.71,6.93,20.91,20.91,0,0,0-1.68,7.7A7.145,7.145,0,0,0,26.95-4.2a9.894,9.894,0,0,0,6.44,2.1,16.789,16.789,0,0,0,9.8-3.43q5.39-3.85,5.39-8.61a3.845,3.845,0,0,0-1.05-2.73,3.489,3.489,0,0,0-2.66-1.12,5.747,5.747,0,0,0-3.64,1.33,12.842,12.842,0,0,0-2.59,2.94l-.84-.42a11.458,11.458,0,0,1,3.43-4.69,8.548,8.548,0,0,1,5.46-2.1,4.27,4.27,0,0,1,3.255,1.3,4.738,4.738,0,0,1,1.225,3.4q0,5.95-7.14,11.48Q37.24.49,30.94.49A12.042,12.042,0,0,1,23.03-2.1a9.253,9.253,0,0,1-3.36-7.49,20.173,20.173,0,0,1,1.89-8.33,40.376,40.376,0,0,1,4.55-7.42,13.8,13.8,0,0,1-6.58-3.01A8.152,8.152,0,0,1,16.31-34.72ZM32.9-25.76a28.176,28.176,0,0,0,10.15-1.82,19.656,19.656,0,0,0,8.05-5.67,4.924,4.924,0,0,1-1.12-3.01,3.019,3.019,0,0,1,.49-1.715,1.583,1.583,0,0,1,1.4-.735,1.392,1.392,0,0,1,1.26.665,3.023,3.023,0,0,1,.42,1.645,4.843,4.843,0,0,1-.98,2.94,4.652,4.652,0,0,0,1.82,1.015,7.511,7.511,0,0,0,2.17.315,8.574,8.574,0,0,0,5.565-2.03A6.261,6.261,0,0,0,64.61-39.2a4.43,4.43,0,0,0-2.1-3.955,8.664,8.664,0,0,0-4.83-1.365q-6.93,0-15.33,6.3A46.573,46.573,0,0,0,30.59-25.83ZM57.47.56A4.285,4.285,0,0,1,54.005-.805,5.617,5.617,0,0,1,52.85-4.55q0-5.11,5.565-9.975T69.23-19.39a4.485,4.485,0,0,1,1.89.385,1.279,1.279,0,0,1,.84,1.225q0,1.19-1.47,1.19a8.12,8.12,0,0,1-2.1-.42,8.177,8.177,0,0,0-2.17-.42q-3.71,0-6.9,4.235A13.706,13.706,0,0,0,56.14-5.04a4.7,4.7,0,0,0,.63,2.625,2.493,2.493,0,0,0,2.24.945q3.08,0,5.74-3.15a9.8,9.8,0,0,0,2.66-6.3,6.262,6.262,0,0,0-.35-1.61,6.266,6.266,0,0,1-.35-1.68,1.206,1.206,0,0,1,.385-.875,1.206,1.206,0,0,1,.875-.385,1.382,1.382,0,0,1,1.365,1.015,5.969,5.969,0,0,1,.385,2.135q0,4.06-4.13,8.47T57.47.56ZM71.05,0q4.13-6.02,6.93-10.71a32.933,32.933,0,0,0,2.87-5.53l-.42-.49a3.17,3.17,0,0,0-1.575.6A27.7,27.7,0,0,0,76.09-14l-.49-.77a23.019,23.019,0,0,1,3.29-2.59,7.908,7.908,0,0,1,3.78-1.61q1.47,0,1.47,1.33a4.841,4.841,0,0,1-.56,2.17q-.14.28-1.19,1.96a32.469,32.469,0,0,1,4.76-3.85,10.855,10.855,0,0,1,5.74-1.89,3.674,3.674,0,0,1,2.485.875A2.939,2.939,0,0,1,96.39-16.03q0,2.52-5.495,7.1T85.4-2.31q0,.98.91.98a8.12,8.12,0,0,0,2.1-.42,8.12,8.12,0,0,1,2.1-.42,3.181,3.181,0,0,1,1.05.28l.35.84-.42.98a1.773,1.773,0,0,1-1.05.35q-1.96,0-4.935-.1A18.7,18.7,0,0,1,82.25-.07l-.28-.84q0-1.96,5.425-6.755T92.82-14.91a1.932,1.932,0,0,0-.665-1.505,2.377,2.377,0,0,0-1.645-.595q-5.11,0-11.41,9.45Q78.4-6.51,74.55,0Zm32.34-16.52a1.657,1.657,0,0,1,.805-1.575,4.329,4.329,0,0,1,2.135-.455q.84,0,1.61.07t1.47.14a44.206,44.206,0,0,1,5.53-8.68q4.27-5.11,8.26-5.11,1.75,0,1.75.91l-.28.63a2.006,2.006,0,0,1-.91.21,10.032,10.032,0,0,0-1.68-.21q-3.78,0-6.44,4.97-1.89,3.85-3.78,7.63l1.89.21q2.59,0,3.01-1.75t1.12-1.75q1.26,0,1.26,1.33a2.428,2.428,0,0,1-1.61,2.38,9.616,9.616,0,0,1-3.85.7h-1.19a5.9,5.9,0,0,0-.98-.14q-.91,2.31-1.26,3.22a22.278,22.278,0,0,1-1.47,3.15A6.434,6.434,0,0,1,109.9-7a6.391,6.391,0,0,1-3.15,5.67A11.935,11.935,0,0,1,100.17.42,11.041,11.041,0,0,1,97.23.07q-1.96-.56-1.96-1.82,0-1.05.84-1.05a3,3,0,0,1,.77.14,2.966,2.966,0,0,0,.7.14q1.61,0,5.145-4.165t3.535-5.635a12.263,12.263,0,0,1-1.4-1.47A5.047,5.047,0,0,1,103.39-16.52Zm5.46-.91-1.12-.07a2.677,2.677,0,0,0-1.575.42,1.515,1.515,0,0,0-.6,1.33,2.869,2.869,0,0,0,.35,1.26,3.526,3.526,0,0,0,.84,1.12q.35-.63.875-1.54A26.009,26.009,0,0,0,108.85-17.43ZM98.7-1.89a9.14,9.14,0,0,0,3.36.63,7.408,7.408,0,0,0,4.69-1.47,5.245,5.245,0,0,0,2.17-4.34,5.27,5.27,0,0,0-.7-2.59,19.242,19.242,0,0,1-3.92,4.9A11.938,11.938,0,0,1,98.7-1.89Zm31.64-.84q0,.77.63.77a4.865,4.865,0,0,0,2.17-1.12,18.279,18.279,0,0,0,1.96-1.68l.49.84a21.947,21.947,0,0,1-3.36,2.73A7.93,7.93,0,0,1,128.31.42q-1.68,0-1.68-1.4a4.016,4.016,0,0,1,.28-1.435q.28-.735.77-1.785a24.38,24.38,0,0,1-3.5,2.94A7.88,7.88,0,0,1,119.91.35a3.269,3.269,0,0,1-2.52-.98,3.755,3.755,0,0,1-.91-2.66q0-5.53,6.37-10.815t11.97-5.285a11.552,11.552,0,0,1,3.15.455q1.61.455,1.61,1.575l-.42.84-.91.35q-.14,0-3.08-.98a8.193,8.193,0,0,0-2.52-.49q-4.06,0-8.33,4.41t-4.27,8.54a2.72,2.72,0,0,0,.525,1.68,1.768,1.768,0,0,0,1.5.7q3.01,0,7.07-4.9a51.794,51.794,0,0,0,5.18-7.63h2.73q-1.75,2.8-3.36,5.6Q130.34-3.57,130.34-2.73Zm24.22-2.52a18.166,18.166,0,0,1-4.445,3.885A9.55,9.55,0,0,1,145.04.35a3.77,3.77,0,0,1-2.975-1.225A4.524,4.524,0,0,1,140.98-3.99q0-4.62,5.355-9.765T156.31-18.9a4.727,4.727,0,0,1,2.065.42,1.5,1.5,0,0,1,.875,1.47,1.3,1.3,0,0,1-1.47,1.47,6.06,6.06,0,0,1-2.03-1.05,2.955,2.955,0,0,0-1.61-.49q-3.15,0-6.44,4.305T144.41-5.25a2.766,2.766,0,0,0,.84,2.03,2.766,2.766,0,0,0,2.03.84,7.382,7.382,0,0,0,3.64-1.19A15.73,15.73,0,0,0,154-6.02Zm10.22-11.27a1.657,1.657,0,0,1,.805-1.575,4.328,4.328,0,0,1,2.135-.455q.84,0,1.61.07t1.47.14a44.206,44.206,0,0,1,5.53-8.68q4.27-5.11,8.26-5.11,1.75,0,1.75.91l-.28.63a2.006,2.006,0,0,1-.91.21,10.031,10.031,0,0,0-1.68-.21q-3.78,0-6.44,4.97-1.89,3.85-3.78,7.63l1.89.21q2.59,0,3.01-1.75t1.12-1.75q1.26,0,1.26,1.33a2.428,2.428,0,0,1-1.61,2.38,9.616,9.616,0,0,1-3.85.7h-1.19a5.9,5.9,0,0,0-.98-.14q-.91,2.31-1.26,3.22a22.277,22.277,0,0,1-1.47,3.15A6.434,6.434,0,0,1,171.29-7a6.391,6.391,0,0,1-3.15,5.67A11.935,11.935,0,0,1,161.56.42a11.041,11.041,0,0,1-2.94-.35q-1.96-.56-1.96-1.82,0-1.05.84-1.05a3,3,0,0,1,.77.14,2.966,2.966,0,0,0,.7.14q1.61,0,5.145-4.165t3.535-5.635a12.263,12.263,0,0,1-1.4-1.47A5.047,5.047,0,0,1,164.78-16.52Zm5.46-.91-1.12-.07a2.677,2.677,0,0,0-1.575.42,1.515,1.515,0,0,0-.6,1.33,2.869,2.869,0,0,0,.35,1.26,3.526,3.526,0,0,0,.84,1.12q.35-.63.875-1.54A26.012,26.012,0,0,0,170.24-17.43ZM160.09-1.89a9.14,9.14,0,0,0,3.36.63,7.408,7.408,0,0,0,4.69-1.47,5.245,5.245,0,0,0,2.17-4.34,5.27,5.27,0,0,0-.7-2.59,19.242,19.242,0,0,1-3.92,4.9A11.938,11.938,0,0,1,160.09-1.89Z" transform="translate(-16.31 45.99)" fill="#ebc8cc"/>
</svg>
