<svg xmlns="http://www.w3.org/2000/svg" width="143.43" height="48.58" viewBox="0 0 143.43 48.58">
  <path id="パス_2" data-name="パス 2" d="M12.6,1.47A22.163,22.163,0,0,1,5.18.35Q.91-1.19,0-4.48L.49-5.74l1.19-.49q.63.21,3.64,3.71Q7.77.28,12.67.28a19.169,19.169,0,0,0,9.17-2.45A32,32,0,0,0,29.4-8.05a11.974,11.974,0,0,1-5.215-5.005A14.329,14.329,0,0,1,22.26-20.23q0-11.69,11.27-19.39a38.547,38.547,0,0,1,22.33-6.93,31.527,31.527,0,0,1,5.39.35q3.36.63,4.48,2.52a.924.924,0,0,1-.91.98q-3.78-1.12-5.6-1.61a22.131,22.131,0,0,0-5.95-.98q-10.43,0-18.97,7.7-8.82,7.98-8.82,18.34a14,14,0,0,0,1.19,5.845,8.8,8.8,0,0,0,3.78,4.1q.84-1.05,7.84-12.46a93.717,93.717,0,0,1,10.08-14q6.23-6.72,11.69-6.72a4.113,4.113,0,0,1,.98.14l1.12.28L63-40.81l-.84.91-1.54-.42a5.224,5.224,0,0,0-.98-.21q-4.62,0-6.72,10.57-1.33,11.55-1.54,13.23l-.56,4.9-.63,3.78-.07.42.21-.28,2.59-4.06q4.76-7.42,9.52-14.91a65.228,65.228,0,0,1,12.32-14q7.7-6.23,15.89-6.23a12.9,12.9,0,0,1,3.01.28l1.68.42,1.75,2.03-1.05,1.19a25.45,25.45,0,0,1-3.255-1.085,11.7,11.7,0,0,0-4.165-.875q-9.87,0-19.6,11.9L53.9-10.99Q45.71.98,39.9.98a2.484,2.484,0,0,1-2.31-1.4l.42-.98a2.363,2.363,0,0,1,1.19-.28,18.394,18.394,0,0,1,1.82.35,5.793,5.793,0,0,0,1.26.14,2.672,2.672,0,0,0,.945-.245q.6-.245,1.155-.455,2.24-1.82,3.22-10.22,1.47-12.6,2.24-15.68,2.24-9.24,7.49-13.02-3.85.91-8.89,7.56-3.01,3.99-8.68,13.3-5.32,8.82-7.7,11.41L35-8.12a11.366,11.366,0,0,0,6.51-2.1l.56.77A9.77,9.77,0,0,1,38.78-7.6,12.65,12.65,0,0,1,35-7.07q-.7,0-1.295-.035T31.01-7.42A23.025,23.025,0,0,1,22.785-.98,23.239,23.239,0,0,1,12.6,1.47ZM76.72-6.16a17.582,17.582,0,0,1-4.48,4.62A10.473,10.473,0,0,1,66.22.63q-4.34,0-4.34-4.48,0-5.18,4.76-14.945a76.242,76.242,0,0,1,10.78-16.7q7-7.98,12.32-7.98a4.941,4.941,0,0,1,1.96.42l.77.98-.28.7-.7.28a8.3,8.3,0,0,1-1.575-.49A5.069,5.069,0,0,0,88.27-42q-3.71,0-9.45,7.7a88.976,88.976,0,0,0-9.2,15.75Q65.38-9.45,65.38-5.46q0,3.36,3.15,3.36a6.983,6.983,0,0,0,4.13-1.47,18.161,18.161,0,0,0,3.22-3.15ZM93.45-4.97a25.483,25.483,0,0,1-4.34,3.5A9.959,9.959,0,0,1,83.93.42,3.745,3.745,0,0,1,80.99-.84a4.471,4.471,0,0,1-1.12-3.08q0-4.62,5.145-9.905T94.71-19.11a3.288,3.288,0,0,1,1.82.455,1.659,1.659,0,0,1,.7,1.505q0,2.66-5.39,5.67a35.991,35.991,0,0,1-8.05,3.36A8.192,8.192,0,0,0,83.3-5.6a3.594,3.594,0,0,0,.735,2.275,2.393,2.393,0,0,0,1.995.945,7.9,7.9,0,0,0,3.85-1.26,30.694,30.694,0,0,0,3.36-2.38Zm.49-11.27q0-1.12-1.26-1.12-2.1,0-4.83,2.94a23.775,23.775,0,0,0-3.5,4.9,28.887,28.887,0,0,0,5.67-2.52Q93.94-14.28,93.94-16.24ZM96.18,0q4.13-6.02,6.93-10.71a32.932,32.932,0,0,0,2.87-5.53l-.42-.49a3.17,3.17,0,0,0-1.575.6A27.7,27.7,0,0,0,101.22-14l-.49-.77a23.019,23.019,0,0,1,3.29-2.59,7.908,7.908,0,0,1,3.78-1.61q1.47,0,1.47,1.33a4.841,4.841,0,0,1-.56,2.17q-.14.28-1.19,1.96a32.469,32.469,0,0,1,4.76-3.85,10.855,10.855,0,0,1,5.74-1.89,3.674,3.674,0,0,1,2.485.875,2.939,2.939,0,0,1,1.015,2.345q0,2.52-5.495,7.1t-5.5,6.615q0,.98.91.98a8.12,8.12,0,0,0,2.1-.42,8.12,8.12,0,0,1,2.1-.42,3.181,3.181,0,0,1,1.05.28l.35.84-.42.98a1.773,1.773,0,0,1-1.05.35q-1.96,0-4.935-.1A18.7,18.7,0,0,1,107.38-.07l-.28-.84q0-1.96,5.425-6.755t5.425-7.245a1.932,1.932,0,0,0-.665-1.505,2.377,2.377,0,0,0-1.645-.595q-5.11,0-11.41,9.45-.7,1.05-4.55,7.56Zm37.24.28q-1.47,0-1.47-1.33a6.01,6.01,0,0,1,.77-2.52q.14-.35.77-1.47a31.117,31.117,0,0,1-3.85,3.36A8.483,8.483,0,0,1,124.95.21a2.166,2.166,0,0,1-2.45-2.45q0-1.47,2.1-5.04,2.66-4.55,5.39-9.17l-.49-.49a2.7,2.7,0,0,0-1.4.42q-.7.42-2.66,1.89l-.35-.84a24.066,24.066,0,0,1,3.08-2.31,7.444,7.444,0,0,1,3.5-1.4,1.879,1.879,0,0,1,1.12.35,1.135,1.135,0,0,1,.49.98q0,1.33-3.92,7.42t-3.92,7.42l.35.77.84.35q2.94,0,7.91-5.95,4.62-5.53,5.53-8.61l-.42-.56a5.051,5.051,0,0,0-1.96.98q-1.19.77-1.89,1.33l-.49-.77a18.6,18.6,0,0,1,3.01-2.38,7.372,7.372,0,0,1,3.57-1.33q1.54,0,1.54,1.33,0,1.19-4.06,7.7t-4.06,7.28q0,.7.63.7a3.363,3.363,0,0,0,1.61-.7q.56-.42,2.8-2.24l.49.84a24.854,24.854,0,0,1-3.43,2.87A7.767,7.767,0,0,1,133.42.28Z" transform="translate(0 47.11)" fill="#ebc8cc"/>
</svg>
