<svg xmlns="http://www.w3.org/2000/svg" width="128.66" height="49.14" viewBox="0 0 128.66 49.14">
  <path id="news" d="M12.25,1.61A20.1,20.1,0,0,1,5.11.42Q.98-1.12,0-4.27L.49-5.46l1.26-.49q.7.21,3.5,3.57Q7.63.42,12.74.42A22.706,22.706,0,0,0,22.05-2.1Q28-4.9,29.4-8.05a11.1,11.1,0,0,1-5.285-4.9,14.819,14.819,0,0,1-1.855-7.28q0-11.34,11.2-19.18a37.693,37.693,0,0,1,21.98-7.07,32.451,32.451,0,0,1,5.6.35q3.43.63,4.62,2.59a.866.866,0,0,1-.98.98,13.081,13.081,0,0,1-3.99-.7q-5.39-1.75-7.07-1.75a28.372,28.372,0,0,0-19.46,7.56q-8.75,7.84-8.75,18.76a12.545,12.545,0,0,0,1.225,5.5A9.282,9.282,0,0,0,30.31-9.17q1.19-1.61,7.84-12.46a92.6,92.6,0,0,1,10.01-14q6.23-6.72,11.76-6.72a5.01,5.01,0,0,1,1.05.14q.63.14,1.19.28l.77,1.26q0,.91-.98.91a4.113,4.113,0,0,1-.98-.14q-1.4-.35-1.47-.35-3.5,0-5.74,7.21a77.458,77.458,0,0,0-2.59,14.42q-.49,5.53-.98,10.99,1.33-1.89,9.17-15.68,6.37-11.27,11.48-16.52,7.42-7.7,15.54-7.7a6.929,6.929,0,0,1,1.54.175q.77.175,1.96.525l1.33,1.68-.56,1.26a3.107,3.107,0,0,1-1.82.49,15.46,15.46,0,0,1-2.38-.28,15.708,15.708,0,0,0-2.17-.28q-8.89,0-17.36,11.69L53.76-10.57Q46.27,1.12,39.69,1.12a2.341,2.341,0,0,1-2.24-1.4l.42-.91a2.458,2.458,0,0,1,1.33-.35,14.4,14.4,0,0,1,1.96.35,5.5,5.5,0,0,0,1.19.14A2.672,2.672,0,0,0,43.3-1.3q.595-.245,1.085-.455,1.96-1.75,3.08-10.71,1.61-12.74,2.52-16.31,2.38-9.17,7.49-11.97-3.78.42-8.89,7.21-2.66,3.57-8.82,13.86Q34.44-10.78,32.2-8.33a8.588,8.588,0,0,1,1.435.175,9.728,9.728,0,0,0,1.155.175,12.216,12.216,0,0,0,2.9-.35,12.806,12.806,0,0,0,3.675-1.82l.7.84a12.433,12.433,0,0,1-3.36,1.785A11.23,11.23,0,0,1,35.21-7a26.547,26.547,0,0,1-3.85-.35A33.7,33.7,0,0,1,22.68-.91,23.052,23.052,0,0,1,12.25,1.61ZM74.69-4.97a25.483,25.483,0,0,1-4.34,3.5A9.959,9.959,0,0,1,65.17.42,3.745,3.745,0,0,1,62.23-.84a4.471,4.471,0,0,1-1.12-3.08q0-4.62,5.145-9.905T75.95-19.11a3.288,3.288,0,0,1,1.82.455,1.659,1.659,0,0,1,.7,1.505q0,2.66-5.39,5.67a35.991,35.991,0,0,1-8.05,3.36,8.192,8.192,0,0,0-.49,2.52,3.594,3.594,0,0,0,.735,2.275,2.393,2.393,0,0,0,2,.945,7.9,7.9,0,0,0,3.85-1.26,30.693,30.693,0,0,0,3.36-2.38Zm.49-11.27q0-1.12-1.26-1.12-2.1,0-4.83,2.94a23.775,23.775,0,0,0-3.5,4.9,28.887,28.887,0,0,0,5.67-2.52Q75.18-14.28,75.18-16.24ZM81.13.49A4.521,4.521,0,0,1,79.45.21a1.09,1.09,0,0,1-.7-1.12q0-1.12,1.33-1.12a11.262,11.262,0,0,1,1.75.21,11.5,11.5,0,0,0,1.89.21,9.426,9.426,0,0,0,4.27-1.015A12.55,12.55,0,0,0,91.63-5.39V-6.3a22.239,22.239,0,0,1,1.54-7.56q1.89-5.25,4.55-5.25a1.284,1.284,0,0,1,1.155.595,2.72,2.72,0,0,1,.385,1.505,12.661,12.661,0,0,1-2.17,6.09A31.555,31.555,0,0,1,93.1-5.53,5.12,5.12,0,0,0,94.4-3.395a2.944,2.944,0,0,0,2.065.735q3.57,0,5.95-3.57a12.276,12.276,0,0,0,2.17-7,14.275,14.275,0,0,0-.07-1.54q-.28-2.38-.28-2.59a2.632,2.632,0,0,1,.385-1.4,1.266,1.266,0,0,1,1.155-.63,1.312,1.312,0,0,1,1.33.84,5.273,5.273,0,0,1,.35,2.03q0,4.55-3.64,10.29Q99.75.14,95.55.14a3.153,3.153,0,0,1-2.59-1.225A5.83,5.83,0,0,1,91.77-4.13a22.858,22.858,0,0,1-5.11,3.4A12.772,12.772,0,0,1,81.13.49Zm3.01-16.73a2.289,2.289,0,0,1-1.12.63.866.866,0,0,1-.98-.98q0-1.33,2.345-1.925a17.387,17.387,0,0,1,4.235-.595q1.4,0,1.4.77a22.257,22.257,0,0,0-3.22,4.9,13.041,13.041,0,0,0-1.54,5.81,10.149,10.149,0,0,0,.21,1.75,10.031,10.031,0,0,1,.21,1.68q0,1.61-1.54,1.61a1.361,1.361,0,0,1-1.4-.945,6.567,6.567,0,0,1-.35-2.275,13.871,13.871,0,0,1,1.89-6.72,19.389,19.389,0,0,1,4.41-5.53,12.567,12.567,0,0,0-2.45.6A7.552,7.552,0,0,0,84.14-16.24Zm13.02,1.4q0-1.05-.7-1.05-1.54,0-2.73,3.43a15.531,15.531,0,0,0-.91,4.83v.91a29.463,29.463,0,0,0,3.29-4.97A7.624,7.624,0,0,0,97.16-14.84Zm28.63-6.58.28-.77.84-.35a1.481,1.481,0,0,1,1.26.7,2.524,2.524,0,0,1,.49,1.47,3.712,3.712,0,0,1-1.47,3.01,5.289,5.289,0,0,1-3.43,1.19,14.2,14.2,0,0,1-2.31-.28,14.154,14.154,0,0,0-2.24-.28q-1.89,0-1.89,1.68,0,.49,3.01,4.83a7.036,7.036,0,0,1,1.47,3.99A6.229,6.229,0,0,1,119.455-1.3,8.032,8.032,0,0,1,114.1.7a7.038,7.038,0,0,1-4.165-1.26A4.181,4.181,0,0,1,108.15-4.2a4.168,4.168,0,0,1,1.19-3.08,4.168,4.168,0,0,1,3.08-1.19,3.315,3.315,0,0,1,2.065.665,2.2,2.2,0,0,1,.875,1.855,2.325,2.325,0,0,1-.525,1.54,1.768,1.768,0,0,1-1.435.63l-.91-.42-.42-.91a2.175,2.175,0,0,1,.175-.735,2.25,2.25,0,0,0,.175-.6.812.812,0,0,0-.7-.49,2.12,2.12,0,0,0-1.68.84,2.876,2.876,0,0,0-.7,1.89,3.062,3.062,0,0,0,1.435,2.66,5.523,5.523,0,0,0,3.185.98,5.083,5.083,0,0,0,3.535-1.3A4.276,4.276,0,0,0,118.93-5.18a8.1,8.1,0,0,0-1.68-4.06,8.1,8.1,0,0,1-1.68-4.06,4.991,4.991,0,0,1,1.715-3.815,5.846,5.846,0,0,1,4.1-1.575,21.953,21.953,0,0,1,2.415.175q1.505.175,1.715.175a1.8,1.8,0,0,0,2.03-1.54,3.1,3.1,0,0,1-1.26-.49A1.206,1.206,0,0,1,125.79-21.42Z" transform="translate(0 47.53)" fill="#ebc8cc"/>
</svg>
